<mxfile host="app.diagrams.net" modified="2023-04-11T23:35:01.697Z" agent="Mozilla/5.0 (Windows NT 10.0; Win64; x64) AppleWebKit/537.36 (KHTML, like Gecko) Chrome/111.0.0.0 Safari/537.36" etag="ITnTMcTSsqqIuicM8iv4" version="21.1.5" type="github" pages="4">
  <diagram name="Página-1" id="433aQ4LUScw2qMy5zW2C">
    <mxGraphModel dx="1434" dy="796" grid="1" gridSize="10" guides="1" tooltips="1" connect="1" arrows="1" fold="1" page="1" pageScale="1" pageWidth="827" pageHeight="1169" math="0" shadow="0">
      <root>
        <mxCell id="0" />
        <mxCell id="1" parent="0" />
        <mxCell id="FudxQIyYEYlhKcDAGeAP-13" style="rounded=0;orthogonalLoop=1;jettySize=auto;html=1;entryX=0.5;entryY=1;entryDx=0;entryDy=0;endArrow=none;endFill=0;" parent="1" source="XLxDk014-oDNIHLZkpk3-1" target="XLxDk014-oDNIHLZkpk3-8" edge="1">
          <mxGeometry relative="1" as="geometry" />
        </mxCell>
        <mxCell id="XLxDk014-oDNIHLZkpk3-1" value="&lt;font style=&quot;vertical-align: inherit;&quot;&gt;&lt;font style=&quot;vertical-align: inherit;&quot;&gt;CINE&lt;/font&gt;&lt;/font&gt;" style="shape=umlActor;html=1;verticalLabelPosition=bottom;verticalAlign=top;align=center;" parent="1" vertex="1">
          <mxGeometry x="110" y="240" width="100" height="190" as="geometry" />
        </mxCell>
        <mxCell id="FudxQIyYEYlhKcDAGeAP-18" style="rounded=0;orthogonalLoop=1;jettySize=auto;html=1;entryX=0.5;entryY=0.5;entryDx=0;entryDy=0;entryPerimeter=0;endArrow=none;endFill=0;" parent="1" source="XLxDk014-oDNIHLZkpk3-5" target="XLxDk014-oDNIHLZkpk3-1" edge="1">
          <mxGeometry relative="1" as="geometry" />
        </mxCell>
        <mxCell id="XLxDk014-oDNIHLZkpk3-5" value="&lt;font style=&quot;vertical-align: inherit;&quot;&gt;&lt;font style=&quot;vertical-align: inherit;&quot;&gt;&lt;font style=&quot;vertical-align: inherit;&quot;&gt;&lt;font style=&quot;vertical-align: inherit;&quot;&gt;registo de salas&lt;/font&gt;&lt;/font&gt;&lt;/font&gt;&lt;/font&gt;" style="ellipse;whiteSpace=wrap;html=1;" parent="1" vertex="1">
          <mxGeometry x="260" y="137.5" width="80" height="35" as="geometry" />
        </mxCell>
        <mxCell id="XLxDk014-oDNIHLZkpk3-8" value="&lt;font style=&quot;vertical-align: inherit;&quot;&gt;&lt;font style=&quot;vertical-align: inherit;&quot;&gt;&lt;font style=&quot;vertical-align: inherit;&quot;&gt;&lt;font style=&quot;vertical-align: inherit;&quot;&gt;&lt;font style=&quot;vertical-align: inherit;&quot;&gt;&lt;font style=&quot;vertical-align: inherit;&quot;&gt;registo&amp;nbsp; de cadeira&amp;nbsp;&lt;/font&gt;&lt;/font&gt;&lt;/font&gt;&lt;/font&gt;&lt;/font&gt;&lt;/font&gt;" style="ellipse;whiteSpace=wrap;html=1;" parent="1" vertex="1">
          <mxGeometry x="380" y="137.5" width="80" height="35" as="geometry" />
        </mxCell>
        <mxCell id="FudxQIyYEYlhKcDAGeAP-14" style="rounded=0;orthogonalLoop=1;jettySize=auto;html=1;entryX=0.5;entryY=0.5;entryDx=0;entryDy=0;entryPerimeter=0;endArrow=none;endFill=0;" parent="1" source="XLxDk014-oDNIHLZkpk3-10" target="XLxDk014-oDNIHLZkpk3-1" edge="1">
          <mxGeometry relative="1" as="geometry" />
        </mxCell>
        <mxCell id="XLxDk014-oDNIHLZkpk3-10" value="registo de filme diario" style="ellipse;whiteSpace=wrap;html=1;" parent="1" vertex="1">
          <mxGeometry x="500" y="130" width="90" height="50" as="geometry" />
        </mxCell>
        <mxCell id="FudxQIyYEYlhKcDAGeAP-15" style="rounded=0;orthogonalLoop=1;jettySize=auto;html=1;entryX=0.5;entryY=0.5;entryDx=0;entryDy=0;entryPerimeter=0;endArrow=none;endFill=0;" parent="1" source="FudxQIyYEYlhKcDAGeAP-2" target="XLxDk014-oDNIHLZkpk3-1" edge="1">
          <mxGeometry relative="1" as="geometry" />
        </mxCell>
        <mxCell id="FudxQIyYEYlhKcDAGeAP-2" value="horários dos filmes apresentados&amp;nbsp;" style="ellipse;whiteSpace=wrap;html=1;" parent="1" vertex="1">
          <mxGeometry x="620" y="130" width="90" height="50" as="geometry" />
        </mxCell>
        <mxCell id="FudxQIyYEYlhKcDAGeAP-16" style="rounded=0;orthogonalLoop=1;jettySize=auto;html=1;entryX=0.5;entryY=0.5;entryDx=0;entryDy=0;entryPerimeter=0;endArrow=none;endFill=0;" parent="1" source="FudxQIyYEYlhKcDAGeAP-4" target="XLxDk014-oDNIHLZkpk3-1" edge="1">
          <mxGeometry relative="1" as="geometry" />
        </mxCell>
        <mxCell id="FudxQIyYEYlhKcDAGeAP-4" value="ingressos limitados&amp;nbsp;" style="ellipse;whiteSpace=wrap;html=1;" parent="1" vertex="1">
          <mxGeometry x="620" y="220" width="90" height="50" as="geometry" />
        </mxCell>
        <mxCell id="FudxQIyYEYlhKcDAGeAP-17" style="rounded=0;orthogonalLoop=1;jettySize=auto;html=1;entryX=0.5;entryY=0.5;entryDx=0;entryDy=0;entryPerimeter=0;endArrow=none;endFill=0;" parent="1" source="FudxQIyYEYlhKcDAGeAP-6" target="XLxDk014-oDNIHLZkpk3-1" edge="1">
          <mxGeometry relative="1" as="geometry" />
        </mxCell>
        <mxCell id="FudxQIyYEYlhKcDAGeAP-6" value="comprar ingresso&amp;nbsp;" style="ellipse;whiteSpace=wrap;html=1;" parent="1" vertex="1">
          <mxGeometry x="620" y="300" width="90" height="50" as="geometry" />
        </mxCell>
        <mxCell id="hrbBG4OaQw9ceNQEL2iL-1" style="rounded=0;orthogonalLoop=1;jettySize=auto;html=1;entryX=0.5;entryY=0.5;entryDx=0;entryDy=0;entryPerimeter=0;endArrow=none;endFill=0;" parent="1" source="FudxQIyYEYlhKcDAGeAP-19" target="XLxDk014-oDNIHLZkpk3-1" edge="1">
          <mxGeometry relative="1" as="geometry" />
        </mxCell>
        <mxCell id="FudxQIyYEYlhKcDAGeAP-19" value="qual filme&amp;nbsp;" style="ellipse;whiteSpace=wrap;html=1;" parent="1" vertex="1">
          <mxGeometry x="605" y="380" width="120" height="80" as="geometry" />
        </mxCell>
      </root>
    </mxGraphModel>
  </diagram>
  <diagram id="KUiyghEcxLHWLrG2e4Pp" name="Página-2">
    <mxGraphModel dx="1434" dy="796" grid="1" gridSize="10" guides="1" tooltips="1" connect="1" arrows="1" fold="1" page="1" pageScale="1" pageWidth="827" pageHeight="1169" math="0" shadow="0">
      <root>
        <mxCell id="0" />
        <mxCell id="1" parent="0" />
        <mxCell id="tlZBVv6cR2wG-UomMfm4-3" style="rounded=0;orthogonalLoop=1;jettySize=auto;html=1;endArrow=none;endFill=0;" edge="1" parent="1" source="tlZBVv6cR2wG-UomMfm4-1" target="tlZBVv6cR2wG-UomMfm4-17">
          <mxGeometry relative="1" as="geometry">
            <mxPoint x="510" y="620" as="targetPoint" />
          </mxGeometry>
        </mxCell>
        <mxCell id="tlZBVv6cR2wG-UomMfm4-32" style="rounded=0;orthogonalLoop=1;jettySize=auto;html=1;entryX=0.5;entryY=1;entryDx=0;entryDy=0;endArrow=none;endFill=0;" edge="1" parent="1" source="tlZBVv6cR2wG-UomMfm4-1" target="tlZBVv6cR2wG-UomMfm4-30">
          <mxGeometry relative="1" as="geometry" />
        </mxCell>
        <mxCell id="tlZBVv6cR2wG-UomMfm4-1" value="cliente" style="shape=umlActor;html=1;verticalLabelPosition=bottom;verticalAlign=top;align=center;" vertex="1" parent="1">
          <mxGeometry x="550" y="320" width="85" height="140" as="geometry" />
        </mxCell>
        <mxCell id="tlZBVv6cR2wG-UomMfm4-27" style="rounded=0;orthogonalLoop=1;jettySize=auto;html=1;endArrow=none;endFill=0;" edge="1" parent="1" source="tlZBVv6cR2wG-UomMfm4-16" target="tlZBVv6cR2wG-UomMfm4-26">
          <mxGeometry relative="1" as="geometry" />
        </mxCell>
        <mxCell id="tlZBVv6cR2wG-UomMfm4-31" style="rounded=0;orthogonalLoop=1;jettySize=auto;html=1;entryX=0;entryY=0.5;entryDx=0;entryDy=0;endArrow=none;endFill=0;" edge="1" parent="1" source="tlZBVv6cR2wG-UomMfm4-16" target="tlZBVv6cR2wG-UomMfm4-30">
          <mxGeometry relative="1" as="geometry" />
        </mxCell>
        <mxCell id="tlZBVv6cR2wG-UomMfm4-16" value="clube&amp;nbsp;" style="shape=umlActor;html=1;verticalLabelPosition=bottom;verticalAlign=top;align=center;" vertex="1" parent="1">
          <mxGeometry x="40" y="100" width="80" height="160" as="geometry" />
        </mxCell>
        <mxCell id="tlZBVv6cR2wG-UomMfm4-18" style="rounded=0;orthogonalLoop=1;jettySize=auto;html=1;entryX=0.5;entryY=0.5;entryDx=0;entryDy=0;entryPerimeter=0;endArrow=none;endFill=0;" edge="1" parent="1" source="tlZBVv6cR2wG-UomMfm4-17" target="tlZBVv6cR2wG-UomMfm4-16">
          <mxGeometry relative="1" as="geometry" />
        </mxCell>
        <mxCell id="tlZBVv6cR2wG-UomMfm4-25" style="edgeStyle=orthogonalEdgeStyle;rounded=0;orthogonalLoop=1;jettySize=auto;html=1;dashed=1;dashPattern=8 8;" edge="1" parent="1" source="tlZBVv6cR2wG-UomMfm4-17" target="tlZBVv6cR2wG-UomMfm4-21">
          <mxGeometry relative="1" as="geometry" />
        </mxCell>
        <mxCell id="tlZBVv6cR2wG-UomMfm4-17" value="msg automáticas com opção de cadastros e login&amp;nbsp;" style="ellipse;whiteSpace=wrap;html=1;" vertex="1" parent="1">
          <mxGeometry x="180" y="145" width="140" height="70" as="geometry" />
        </mxCell>
        <mxCell id="tlZBVv6cR2wG-UomMfm4-33" style="rounded=0;orthogonalLoop=1;jettySize=auto;html=1;entryX=0.979;entryY=0.629;entryDx=0;entryDy=0;entryPerimeter=0;dashed=1;" edge="1" parent="1" source="tlZBVv6cR2wG-UomMfm4-21" target="tlZBVv6cR2wG-UomMfm4-26">
          <mxGeometry relative="1" as="geometry" />
        </mxCell>
        <mxCell id="tlZBVv6cR2wG-UomMfm4-21" value="enviar comprovante por email&amp;nbsp;" style="ellipse;whiteSpace=wrap;html=1;" vertex="1" parent="1">
          <mxGeometry x="400" y="145" width="140" height="70" as="geometry" />
        </mxCell>
        <mxCell id="tlZBVv6cR2wG-UomMfm4-26" value="validar dos cliente&amp;nbsp;" style="ellipse;whiteSpace=wrap;html=1;" vertex="1" parent="1">
          <mxGeometry x="190" y="50" width="140" height="70" as="geometry" />
        </mxCell>
        <mxCell id="tlZBVv6cR2wG-UomMfm4-30" value="valores do clube&amp;nbsp;&lt;br&gt;com opção de escolha&amp;nbsp;&amp;nbsp;&lt;br&gt;valor de associados&amp;nbsp;" style="ellipse;whiteSpace=wrap;html=1;" vertex="1" parent="1">
          <mxGeometry x="310" y="350" width="140" height="70" as="geometry" />
        </mxCell>
      </root>
    </mxGraphModel>
  </diagram>
  <diagram id="T5tyBZeCw3mKbwjew5FZ" name="Página-3">
    <mxGraphModel dx="1434" dy="796" grid="1" gridSize="10" guides="1" tooltips="1" connect="1" arrows="1" fold="1" page="1" pageScale="1" pageWidth="827" pageHeight="1169" math="0" shadow="0">
      <root>
        <mxCell id="0" />
        <mxCell id="1" parent="0" />
        <mxCell id="7ZDSpHteIDFN_Gc7nKc6-7" style="edgeStyle=orthogonalEdgeStyle;rounded=0;orthogonalLoop=1;jettySize=auto;html=1;endArrow=none;endFill=0;" edge="1" parent="1" source="7ZDSpHteIDFN_Gc7nKc6-1" target="7ZDSpHteIDFN_Gc7nKc6-2">
          <mxGeometry relative="1" as="geometry" />
        </mxCell>
        <mxCell id="7ZDSpHteIDFN_Gc7nKc6-11" style="rounded=0;orthogonalLoop=1;jettySize=auto;html=1;endArrow=none;endFill=0;" edge="1" parent="1" source="7ZDSpHteIDFN_Gc7nKc6-1" target="7ZDSpHteIDFN_Gc7nKc6-3">
          <mxGeometry relative="1" as="geometry" />
        </mxCell>
        <mxCell id="7ZDSpHteIDFN_Gc7nKc6-1" value="loja" style="shape=umlActor;html=1;verticalLabelPosition=bottom;verticalAlign=top;align=center;" vertex="1" parent="1">
          <mxGeometry x="90" y="70" width="80" height="120" as="geometry" />
        </mxCell>
        <mxCell id="7ZDSpHteIDFN_Gc7nKc6-2" value="MANTER cadastro de veiculo&amp;nbsp;&amp;nbsp;" style="ellipse;whiteSpace=wrap;html=1;" vertex="1" parent="1">
          <mxGeometry x="230" y="95" width="140" height="70" as="geometry" />
        </mxCell>
        <mxCell id="7ZDSpHteIDFN_Gc7nKc6-3" value="MANTER cadastro de cliente&amp;nbsp;&amp;nbsp;" style="ellipse;whiteSpace=wrap;html=1;" vertex="1" parent="1">
          <mxGeometry x="344" y="190" width="140" height="70" as="geometry" />
        </mxCell>
        <mxCell id="7ZDSpHteIDFN_Gc7nKc6-10" style="rounded=0;orthogonalLoop=1;jettySize=auto;html=1;endArrow=none;endFill=0;" edge="1" parent="1" source="7ZDSpHteIDFN_Gc7nKc6-9" target="7ZDSpHteIDFN_Gc7nKc6-3">
          <mxGeometry relative="1" as="geometry" />
        </mxCell>
        <mxCell id="7ZDSpHteIDFN_Gc7nKc6-9" value="ActorName" style="shape=umlActor;html=1;verticalLabelPosition=bottom;verticalAlign=top;align=center;" vertex="1" parent="1">
          <mxGeometry x="710" y="270" width="80" height="120" as="geometry" />
        </mxCell>
        <mxCell id="7ZDSpHteIDFN_Gc7nKc6-14" style="rounded=0;orthogonalLoop=1;jettySize=auto;html=1;endArrow=none;endFill=0;" edge="1" parent="1" source="7ZDSpHteIDFN_Gc7nKc6-13" target="7ZDSpHteIDFN_Gc7nKc6-1">
          <mxGeometry relative="1" as="geometry" />
        </mxCell>
        <mxCell id="7ZDSpHteIDFN_Gc7nKc6-15" style="rounded=0;orthogonalLoop=1;jettySize=auto;html=1;endArrow=none;endFill=0;" edge="1" parent="1" source="7ZDSpHteIDFN_Gc7nKc6-13" target="7ZDSpHteIDFN_Gc7nKc6-9">
          <mxGeometry relative="1" as="geometry" />
        </mxCell>
        <mxCell id="7ZDSpHteIDFN_Gc7nKc6-13" value="exibir&amp;nbsp; &amp;nbsp;de &lt;br&gt;carro para alugue&amp;nbsp;" style="ellipse;whiteSpace=wrap;html=1;" vertex="1" parent="1">
          <mxGeometry x="340" y="310" width="140" height="70" as="geometry" />
        </mxCell>
        <mxCell id="7ZDSpHteIDFN_Gc7nKc6-19" style="rounded=0;orthogonalLoop=1;jettySize=auto;html=1;endArrow=none;endFill=0;" edge="1" parent="1" source="7ZDSpHteIDFN_Gc7nKc6-17" target="7ZDSpHteIDFN_Gc7nKc6-1">
          <mxGeometry relative="1" as="geometry" />
        </mxCell>
        <mxCell id="7ZDSpHteIDFN_Gc7nKc6-20" style="rounded=0;orthogonalLoop=1;jettySize=auto;html=1;endArrow=none;endFill=0;" edge="1" parent="1" source="7ZDSpHteIDFN_Gc7nKc6-17" target="7ZDSpHteIDFN_Gc7nKc6-9">
          <mxGeometry relative="1" as="geometry" />
        </mxCell>
        <mxCell id="7ZDSpHteIDFN_Gc7nKc6-17" value="exibir de pagamento&amp;nbsp;&lt;br&gt;pagamento e métodos&amp;nbsp;&amp;nbsp;" style="ellipse;whiteSpace=wrap;html=1;" vertex="1" parent="1">
          <mxGeometry x="290" y="420" width="160" height="80" as="geometry" />
        </mxCell>
      </root>
    </mxGraphModel>
  </diagram>
  <diagram id="CmCV23Zzp2U0LSREkNG1" name="Página-4">
    <mxGraphModel dx="1434" dy="796" grid="1" gridSize="10" guides="1" tooltips="1" connect="1" arrows="1" fold="1" page="1" pageScale="1" pageWidth="827" pageHeight="1169" math="0" shadow="0">
      <root>
        <mxCell id="0" />
        <mxCell id="1" parent="0" />
      </root>
    </mxGraphModel>
  </diagram>
</mxfile>
